<svg width="123" height="49" xmlns="http://www.w3.org/2000/svg" xmlns:xlink="http://www.w3.org/1999/xlink" xml:space="preserve" overflow="hidden"><defs><clipPath id="clip0"><rect x="58" y="17" width="123" height="49"/></clipPath></defs><g clip-path="url(#clip0)" transform="translate(-58 -17)"><path d="M105.403 44.2975 104.937 44.2975 104.937 46.5975C104.812 46.3799 104.734 46.24 104.734 46.2245L103.585 44.2975 102.932 44.2975 102.932 47.5609 103.398 47.5609 103.398 45.1056C103.429 45.1677 103.553 45.4164 103.585 45.4786L104.859 47.5609 105.403 47.5609ZM108.177 46.3488C108.177 45.6961 107.788 45.1056 107.058 45.1056 106.327 45.1056 105.923 45.6806 105.923 46.3488 105.923 46.8927 106.219 47.6076 107.027 47.6076 107.648 47.6076 108.177 47.1569 108.177 46.3488ZM107.586 46.3488C107.586 46.5975 107.555 47.1569 107.042 47.1569 106.498 47.1569 106.498 46.4731 106.498 46.3488 106.498 45.9758 106.607 45.5407 107.058 45.5407 107.462 45.5407 107.586 45.9292 107.586 46.3488ZM108.713 47.5609 109.257 47.5609 109.257 46.5819C109.257 46.2089 109.35 45.9758 109.443 45.8671 109.614 45.665 109.816 45.665 109.94 45.665L109.94 45.0745C109.428 45.059 109.257 45.5563 109.21 45.7272L109.21 45.1522 108.713 45.1522ZM111.743 47.1414C111.681 47.1414 111.65 47.1414 111.603 47.1414 111.324 47.1414 111.215 47.0792 111.215 46.7529L111.215 45.5718 111.697 45.5718 111.697 45.1522 111.215 45.1522 111.215 44.484 110.764 44.515 110.717 45.1522 110.391 45.1522 110.391 45.5718 110.686 45.5718 110.686 46.815C110.686 47.0947 110.702 47.2501 110.857 47.4211 110.966 47.5454 111.184 47.6076 111.37 47.6076 111.463 47.6076 111.619 47.592 111.743 47.5609ZM112.248 47.5609 112.792 47.5609 112.792 46.411C112.792 46.1157 112.823 45.9603 112.901 45.7894 112.963 45.634 113.15 45.5252 113.336 45.5252 113.709 45.5252 113.709 45.8826 113.709 46.0846L113.709 47.5609 114.253 47.5609 114.253 46.0069C114.253 45.3387 114.02 45.0434 113.507 45.0434 113.01 45.0434 112.854 45.4319 112.792 45.5718L112.792 44.2975 112.248 44.2975ZM116.487 46.7995C116.425 46.9238 116.331 47.188 115.943 47.188 115.741 47.188 115.585 47.1103 115.492 46.9704 115.352 46.7684 115.352 46.5819 115.368 46.4265L117.015 46.4265C117.031 45.7272 116.72 45.1056 115.927 45.1056 115.213 45.1056 114.793 45.6495 114.793 46.3643 114.793 46.9704 115.104 47.6076 115.912 47.6076 116.378 47.6076 116.798 47.39 116.969 46.8616ZM115.368 46.0691C115.383 45.9448 115.383 45.836 115.477 45.7117 115.57 45.5563 115.725 45.4786 115.912 45.4786 116.098 45.4786 116.238 45.5563 116.331 45.6961 116.44 45.836 116.44 45.9448 116.44 46.0691ZM117.559 47.5609 118.103 47.5609 118.103 46.5819C118.103 46.2089 118.196 45.9758 118.289 45.8671 118.46 45.665 118.662 45.665 118.787 45.665L118.787 45.0745C118.274 45.059 118.103 45.5563 118.056 45.7272L118.056 45.1522 117.559 45.1522ZM119.3 47.5609 119.844 47.5609 119.844 46.4265C119.844 45.6029 120.263 45.5718 120.372 45.5718 120.465 45.5718 120.745 45.5873 120.745 46.1468L120.745 47.5609 121.289 47.5609 121.289 46.1312C121.289 45.8204 121.304 45.1056 120.527 45.1056 120.077 45.1056 119.89 45.5096 119.797 45.7117L119.797 45.1522 119.3 45.1522ZM124.082 47.5609 124.082 44.2975 123.492 44.2975 123.492 47.5609ZM124.812 47.5609 125.356 47.5609 125.356 46.5819C125.356 46.2089 125.45 45.9758 125.543 45.8671 125.714 45.665 125.916 45.665 126.04 45.665L126.04 45.0745C125.527 45.059 125.356 45.5563 125.31 45.7272L125.31 45.1522 124.812 45.1522ZM128.018 46.7995C127.956 46.9238 127.862 47.188 127.474 47.188 127.272 47.188 127.116 47.1103 127.023 46.9704 126.883 46.7684 126.883 46.5819 126.899 46.4265L128.546 46.4265C128.562 45.7272 128.251 45.1056 127.458 45.1056 126.743 45.1056 126.324 45.6495 126.324 46.3643 126.324 46.9704 126.635 47.6076 127.443 47.6076 127.909 47.6076 128.328 47.39 128.499 46.8616ZM126.899 46.0691C126.914 45.9448 126.914 45.836 127.008 45.7117 127.101 45.5563 127.256 45.4786 127.443 45.4786 127.629 45.4786 127.769 45.5563 127.862 45.6961 127.971 45.836 127.971 45.9448 127.971 46.0691ZM129.634 47.5609 129.634 44.2975 129.09 44.2975 129.09 47.5609ZM132.326 45.9914C132.326 45.6806 132.326 45.4941 132.078 45.2765 131.922 45.1367 131.611 45.1056 131.347 45.1056 130.85 45.1056 130.353 45.2455 130.259 45.7894L130.726 45.8515C130.741 45.7427 130.803 45.4786 131.285 45.4786 131.534 45.4786 131.798 45.5563 131.798 45.8515L131.798 46.038C131.285 46.0225 130.182 46.0535 130.182 46.8616 130.182 47.2657 130.461 47.6076 130.974 47.6076 131.565 47.6076 131.72 47.2501 131.798 47.0637 131.813 47.2657 131.829 47.3589 131.891 47.5609L132.404 47.5609C132.373 47.4832 132.326 47.2968 132.326 47.0637ZM131.798 46.5508C131.798 46.7373 131.705 47.2035 131.161 47.2035 130.772 47.2035 130.741 46.9238 130.741 46.8306 130.741 46.5353 131.036 46.442 131.13 46.411 131.238 46.3799 131.456 46.3333 131.798 46.3333ZM133.026 47.5609 133.57 47.5609 133.57 46.4265C133.57 45.6029 133.989 45.5718 134.098 45.5718 134.191 45.5718 134.471 45.5873 134.471 46.1468L134.471 47.5609 135.015 47.5609 135.015 46.1312C135.015 45.8204 135.03 45.1056 134.253 45.1056 133.802 45.1056 133.616 45.5096 133.523 45.7117L133.523 45.1522 133.026 45.1522ZM137.695 47.5609 137.695 44.2975 137.151 44.2975 137.151 45.4786C136.996 45.1211 136.747 45.0434 136.514 45.0434 135.768 45.0434 135.566 45.8515 135.566 46.3177 135.566 46.5819 135.644 47.6076 136.483 47.6076 136.965 47.6076 137.12 47.2346 137.198 47.0792L137.198 47.5609ZM137.151 46.5508C137.151 46.9393 136.887 47.1569 136.639 47.1569 136.157 47.1569 136.141 46.5197 136.141 46.3643 136.141 46.1468 136.172 45.5096 136.654 45.5096 136.794 45.5096 136.949 45.5718 137.027 45.6961 137.136 45.836 137.151 45.9292 137.151 46.1312Z" fill="#FFFFFF"/><path d="M102.59 51.6211C102.637 51.7765 102.699 51.9785 102.916 52.1495 103.196 52.367 103.538 52.4603 103.926 52.4603 104.672 52.4603 105.216 52.0873 105.216 51.4346 105.216 50.7353 104.657 50.5799 104.377 50.5022L103.818 50.3779C103.662 50.3313 103.367 50.238 103.367 49.9739 103.367 49.8184 103.476 49.5698 103.926 49.5698 104.393 49.5698 104.486 49.834 104.532 49.9428L105.092 49.8029C105.061 49.6941 105.014 49.5387 104.812 49.3833 104.564 49.1813 104.237 49.1036 103.926 49.1036 103.258 49.1036 102.761 49.461 102.761 50.0671 102.761 50.4867 102.994 50.8286 103.476 50.9373L104.206 51.1238C104.346 51.1704 104.595 51.2481 104.595 51.5589 104.595 51.6988 104.486 51.9941 103.957 51.9941 103.849 51.9941 103.709 51.9785 103.538 51.9164 103.243 51.8387 103.196 51.6211 103.165 51.4968ZM106.86 51.9941C106.797 51.9941 106.766 51.9941 106.72 51.9941 106.44 51.9941 106.331 51.9319 106.331 51.6056L106.331 50.4245 106.813 50.4245 106.813 50.0049 106.331 50.0049 106.331 49.3367 105.881 49.3678 105.834 50.0049 105.508 50.0049 105.508 50.4245 105.803 50.4245 105.803 51.6677C105.803 51.9475 105.818 52.1029 105.974 52.2738 106.083 52.3981 106.3 52.4603 106.487 52.4603 106.58 52.4603 106.735 52.4447 106.86 52.4137ZM109.354 50.8441C109.354 50.5333 109.354 50.3468 109.105 50.1292 108.95 49.9894 108.639 49.9583 108.375 49.9583 107.878 49.9583 107.38 50.0982 107.287 50.6421L107.753 50.7042C107.769 50.5955 107.831 50.3313 108.313 50.3313 108.561 50.3313 108.825 50.409 108.825 50.7042L108.825 50.8907C108.313 50.8752 107.209 50.9063 107.209 51.7144 107.209 52.1184 107.489 52.4603 108.002 52.4603 108.592 52.4603 108.748 52.1029 108.825 51.9164 108.841 52.1184 108.857 52.2116 108.919 52.4137L109.432 52.4137C109.4 52.336 109.354 52.1495 109.354 51.9164ZM108.825 51.4035C108.825 51.59 108.732 52.0562 108.188 52.0562 107.8 52.0562 107.769 51.7765 107.769 51.6833 107.769 51.388 108.064 51.2948 108.157 51.2637 108.266 51.2326 108.484 51.186 108.825 51.186ZM111.172 51.9941C111.11 51.9941 111.079 51.9941 111.032 51.9941 110.752 51.9941 110.644 51.9319 110.644 51.6056L110.644 50.4245 111.125 50.4245 111.125 50.0049 110.644 50.0049 110.644 49.3367 110.193 49.3678 110.146 50.0049 109.82 50.0049 109.82 50.4245 110.115 50.4245 110.115 51.6677C110.115 51.9475 110.131 52.1029 110.286 52.2738 110.395 52.3981 110.613 52.4603 110.799 52.4603 110.892 52.4603 111.048 52.4447 111.172 52.4137ZM112.221 52.4137 112.221 49.9894 111.677 49.9894 111.677 52.4137ZM112.221 49.7097 112.221 49.1502 111.677 49.1502 111.677 49.7097ZM112.629 51.8542C112.722 52.2116 113.08 52.4603 113.655 52.4603 113.981 52.4603 114.711 52.3515 114.711 51.6677 114.711 51.2948 114.494 51.0617 114.105 50.984L113.577 50.8752C113.39 50.8286 113.235 50.7664 113.235 50.611 113.235 50.4556 113.359 50.3313 113.67 50.3313 114.012 50.3313 114.074 50.5333 114.105 50.611L114.587 50.5022C114.432 50.0049 113.934 49.9583 113.655 49.9583 112.862 49.9583 112.722 50.4556 112.722 50.7198 112.722 51.2792 113.235 51.388 113.453 51.4346L113.903 51.5123C113.996 51.5434 114.167 51.6056 114.167 51.761 114.167 52.0407 113.779 52.0562 113.655 52.0562 113.266 52.0562 113.188 51.8698 113.142 51.761ZM116.312 51.9941C116.25 51.9941 116.219 51.9941 116.172 51.9941 115.892 51.9941 115.784 51.9319 115.784 51.6056L115.784 50.4245 116.265 50.4245 116.265 50.0049 115.784 50.0049 115.784 49.3367 115.333 49.3678 115.286 50.0049 114.96 50.0049 114.96 50.4245 115.255 50.4245 115.255 51.6677C115.255 51.9475 115.271 52.1029 115.426 52.2738 115.535 52.3981 115.753 52.4603 115.939 52.4603 116.032 52.4603 116.188 52.4447 116.312 52.4137ZM117.357 52.4137 117.357 49.9894 116.813 49.9894 116.813 52.4137ZM117.357 49.7097 117.357 49.1502 116.813 49.1502 116.813 49.7097ZM119.459 51.5279C119.381 51.8076 119.241 51.9941 118.977 51.9941 118.48 51.9941 118.48 51.3258 118.48 51.2326 118.48 51.1238 118.495 50.9373 118.558 50.7664 118.589 50.6421 118.697 50.3934 119.008 50.3934 119.241 50.3934 119.412 50.5333 119.459 50.8441L119.925 50.7819C119.894 50.5955 119.77 49.9583 118.977 49.9583 118.278 49.9583 117.905 50.5488 117.905 51.2015 117.905 51.7454 118.169 52.4603 118.931 52.4603 119.723 52.4603 119.878 51.7921 119.925 51.5745ZM120.092 51.8542C120.185 52.2116 120.543 52.4603 121.118 52.4603 121.444 52.4603 122.175 52.3515 122.175 51.6677 122.175 51.2948 121.957 51.0617 121.568 50.984L121.04 50.8752C120.854 50.8286 120.698 50.7664 120.698 50.611 120.698 50.4556 120.822 50.3313 121.133 50.3313 121.475 50.3313 121.537 50.5333 121.568 50.611L122.05 50.5022C121.895 50.0049 121.397 49.9583 121.118 49.9583 120.325 49.9583 120.185 50.4556 120.185 50.7198 120.185 51.2792 120.698 51.388 120.916 51.4346L121.366 51.5123C121.46 51.5434 121.631 51.6056 121.631 51.761 121.631 52.0407 121.242 52.0562 121.118 52.0562 120.729 52.0562 120.652 51.8698 120.605 51.761ZM126.114 50.8441C126.114 50.5333 126.114 50.3468 125.865 50.1292 125.71 49.9894 125.399 49.9583 125.135 49.9583 124.638 49.9583 124.14 50.0982 124.047 50.6421L124.513 50.7042C124.529 50.5955 124.591 50.3313 125.073 50.3313 125.321 50.3313 125.586 50.409 125.586 50.7042L125.586 50.8907C125.073 50.8752 123.969 50.9063 123.969 51.7144 123.969 52.1184 124.249 52.4603 124.762 52.4603 125.353 52.4603 125.508 52.1029 125.586 51.9164 125.601 52.1184 125.617 52.2116 125.679 52.4137L126.192 52.4137C126.161 52.336 126.114 52.1495 126.114 51.9164ZM125.586 51.4035C125.586 51.59 125.492 52.0562 124.949 52.0562 124.56 52.0562 124.529 51.7765 124.529 51.6833 124.529 51.388 124.824 51.2948 124.917 51.2637 125.026 51.2326 125.244 51.186 125.586 51.186ZM126.813 52.4137 127.357 52.4137 127.357 51.2792C127.357 50.4556 127.777 50.4245 127.886 50.4245 127.979 50.4245 128.259 50.4401 128.259 50.9995L128.259 52.4137 128.802 52.4137 128.802 50.984C128.802 50.6732 128.818 49.9583 128.041 49.9583 127.59 49.9583 127.404 50.3623 127.311 50.5644L127.311 50.0049 126.813 50.0049ZM131.479 52.4137 131.479 49.1502 130.935 49.1502 130.935 50.3313C130.78 49.9739 130.531 49.8961 130.298 49.8961 129.552 49.8961 129.35 50.7042 129.35 51.1704 129.35 51.4346 129.428 52.4603 130.267 52.4603 130.749 52.4603 130.904 52.0873 130.982 51.9319L130.982 52.4137ZM130.935 51.4035C130.935 51.7921 130.671 52.0096 130.423 52.0096 129.941 52.0096 129.925 51.3725 129.925 51.2171 129.925 50.9995 129.956 50.3623 130.438 50.3623 130.578 50.3623 130.733 50.4245 130.811 50.5488 130.92 50.6887 130.935 50.7819 130.935 50.984ZM136.231 52.4137 135.656 50.9684C135.827 50.9063 136.246 50.7198 136.246 50.1137 136.246 49.7718 136.122 49.5543 135.951 49.3989 135.749 49.2279 135.5 49.1502 135.096 49.1502L133.682 49.1502 133.682 52.4137 134.273 52.4137 134.273 51.0772 135.096 51.0772 135.609 52.4137ZM134.273 49.6164 135.05 49.6164C135.469 49.6164 135.625 49.8495 135.625 50.0982 135.625 50.5022 135.298 50.5955 135.003 50.5955L134.273 50.5955ZM138.383 51.6522C138.321 51.7765 138.228 52.0407 137.839 52.0407 137.637 52.0407 137.482 51.963 137.388 51.8231 137.249 51.6211 137.249 51.4346 137.264 51.2792L138.911 51.2792C138.927 50.5799 138.616 49.9583 137.824 49.9583 137.109 49.9583 136.689 50.5022 136.689 51.2171 136.689 51.8231 137 52.4603 137.808 52.4603 138.274 52.4603 138.694 52.2427 138.865 51.7144ZM137.264 50.9218C137.28 50.7975 137.28 50.6887 137.373 50.5644 137.466 50.409 137.622 50.3313 137.808 50.3313 137.995 50.3313 138.134 50.409 138.228 50.5488 138.336 50.6887 138.336 50.7975 138.336 50.9218ZM139.16 51.8542C139.253 52.2116 139.611 52.4603 140.186 52.4603 140.512 52.4603 141.242 52.3515 141.242 51.6677 141.242 51.2948 141.025 51.0617 140.636 50.984L140.108 50.8752C139.922 50.8286 139.766 50.7664 139.766 50.611 139.766 50.4556 139.89 50.3313 140.201 50.3313 140.543 50.3313 140.605 50.5333 140.636 50.611L141.118 50.5022C140.963 50.0049 140.465 49.9583 140.186 49.9583 139.393 49.9583 139.253 50.4556 139.253 50.7198 139.253 51.2792 139.766 51.388 139.984 51.4346L140.434 51.5123C140.528 51.5434 140.698 51.6056 140.698 51.761 140.698 52.0407 140.31 52.0562 140.186 52.0562 139.797 52.0562 139.72 51.8698 139.673 51.761ZM143.263 51.6522C143.201 51.7765 143.107 52.0407 142.719 52.0407 142.517 52.0407 142.361 51.963 142.268 51.8231 142.128 51.6211 142.128 51.4346 142.144 51.2792L143.791 51.2792C143.807 50.5799 143.496 49.9583 142.703 49.9583 141.988 49.9583 141.569 50.5022 141.569 51.2171 141.569 51.8231 141.88 52.4603 142.688 52.4603 143.154 52.4603 143.573 52.2427 143.744 51.7144ZM142.144 50.9218C142.159 50.7975 142.159 50.6887 142.253 50.5644 142.346 50.409 142.501 50.3313 142.688 50.3313 142.874 50.3313 143.014 50.409 143.107 50.5488 143.216 50.6887 143.216 50.7975 143.216 50.9218ZM146.324 50.8441C146.324 50.5333 146.324 50.3468 146.075 50.1292 145.92 49.9894 145.609 49.9583 145.345 49.9583 144.848 49.9583 144.35 50.0982 144.257 50.6421L144.723 50.7042C144.739 50.5955 144.801 50.3313 145.283 50.3313 145.532 50.3313 145.796 50.409 145.796 50.7042L145.796 50.8907C145.283 50.8752 144.18 50.9063 144.18 51.7144 144.18 52.1184 144.459 52.4603 144.972 52.4603 145.563 52.4603 145.718 52.1029 145.796 51.9164 145.811 52.1184 145.827 52.2116 145.889 52.4137L146.402 52.4137C146.371 52.336 146.324 52.1495 146.324 51.9164ZM145.796 51.4035C145.796 51.59 145.703 52.0562 145.159 52.0562 144.77 52.0562 144.739 51.7765 144.739 51.6833 144.739 51.388 145.034 51.2948 145.128 51.2637 145.236 51.2326 145.454 51.186 145.796 51.186ZM147.023 52.4137 147.567 52.4137 147.567 51.4346C147.567 51.0617 147.661 50.8286 147.754 50.7198 147.925 50.5177 148.127 50.5177 148.251 50.5177L148.251 49.9272C147.738 49.9117 147.567 50.409 147.521 50.5799L147.521 50.0049 147.023 50.0049ZM150.089 51.5279C150.011 51.8076 149.871 51.9941 149.607 51.9941 149.11 51.9941 149.11 51.3258 149.11 51.2326 149.11 51.1238 149.125 50.9373 149.187 50.7664 149.218 50.6421 149.327 50.3934 149.638 50.3934 149.871 50.3934 150.042 50.5333 150.089 50.8441L150.555 50.7819C150.524 50.5955 150.4 49.9583 149.607 49.9583 148.908 49.9583 148.535 50.5488 148.535 51.2015 148.535 51.7454 148.799 52.4603 149.56 52.4603 150.353 52.4603 150.508 51.7921 150.555 51.5745ZM151.017 52.4137 151.561 52.4137 151.561 51.2637C151.561 50.9684 151.592 50.813 151.67 50.6421 151.732 50.4867 151.919 50.3779 152.105 50.3779 152.478 50.3779 152.478 50.7353 152.478 50.9373L152.478 52.4137 153.022 52.4137 153.022 50.8596C153.022 50.1914 152.789 49.8961 152.276 49.8961 151.779 49.8961 151.623 50.2846 151.561 50.4245L151.561 49.1502 151.017 49.1502ZM156.678 49.1502 155.963 49.1502 154.875 52.4137 155.372 52.4137 155.637 51.6367 156.88 51.6367 157.144 52.4137 157.781 52.4137ZM155.776 51.1704 156.258 49.7097 156.724 51.1704ZM160.388 49.5387 160.217 49.5387C160.062 49.5387 159.937 49.5698 159.829 49.6475 159.72 49.7097 159.642 49.834 159.595 50.0049 159.471 49.9739 159.347 49.9583 159.129 49.9583 158.29 49.9583 158.135 50.4245 158.135 50.6732 158.135 51.015 158.352 51.1549 158.477 51.2326 158.352 51.2948 158.088 51.4346 158.088 51.7454 158.088 51.9164 158.181 52.0096 158.321 52.1339 158.135 52.2272 157.964 52.336 157.964 52.6312 157.964 53.1285 158.492 53.2839 159.129 53.2839 160.155 53.2839 160.388 52.8022 160.388 52.4914 160.388 52.165 160.155 51.8231 159.564 51.8231L158.943 51.8231C158.632 51.8231 158.554 51.6677 158.554 51.59 158.554 51.4346 158.648 51.388 158.725 51.3569 158.881 51.388 159.005 51.4191 159.176 51.4191 159.751 51.4191 160.155 51.1083 160.155 50.6732 160.155 50.409 159.999 50.2536 159.86 50.1448 159.953 50.0049 160.031 49.9583 160.217 49.9583L160.388 49.9583ZM159.595 50.6732C159.595 50.7975 159.595 50.9063 159.456 51.015 159.378 51.0617 159.254 51.0927 159.145 51.0927 158.85 51.0927 158.694 50.9063 158.694 50.6887 158.694 50.5333 158.803 50.3002 159.16 50.3002 159.502 50.3002 159.595 50.5333 159.595 50.6732ZM158.43 52.4914C158.43 52.4137 158.461 52.367 158.554 52.2738 158.71 52.336 158.958 52.336 159.145 52.336L159.518 52.336C159.689 52.336 159.875 52.4137 159.875 52.5846 159.875 52.8643 159.487 52.911 159.254 52.911 159.129 52.911 158.958 52.8954 158.787 52.8488 158.585 52.8022 158.43 52.6468 158.43 52.4914ZM162.299 51.6522C162.237 51.7765 162.144 52.0407 161.756 52.0407 161.554 52.0407 161.398 51.963 161.305 51.8231 161.165 51.6211 161.165 51.4346 161.181 51.2792L162.828 51.2792C162.843 50.5799 162.533 49.9583 161.74 49.9583 161.025 49.9583 160.606 50.5022 160.606 51.2171 160.606 51.8231 160.916 52.4603 161.724 52.4603 162.191 52.4603 162.61 52.2427 162.781 51.7144ZM161.181 50.9218C161.196 50.7975 161.196 50.6887 161.289 50.5644 161.383 50.409 161.538 50.3313 161.724 50.3313 161.911 50.3313 162.051 50.409 162.144 50.5488 162.253 50.6887 162.253 50.7975 162.253 50.9218ZM163.372 52.4137 163.916 52.4137 163.916 51.2792C163.916 50.4556 164.335 50.4245 164.444 50.4245 164.537 50.4245 164.817 50.4401 164.817 50.9995L164.817 52.4137 165.361 52.4137 165.361 50.984C165.361 50.6732 165.376 49.9583 164.599 49.9583 164.149 49.9583 163.962 50.3623 163.869 50.5644L163.869 50.0049 163.372 50.0049ZM167.467 51.5279C167.389 51.8076 167.249 51.9941 166.985 51.9941 166.488 51.9941 166.488 51.3258 166.488 51.2326 166.488 51.1238 166.503 50.9373 166.565 50.7664 166.596 50.6421 166.705 50.3934 167.016 50.3934 167.249 50.3934 167.42 50.5333 167.467 50.8441L167.933 50.7819C167.902 50.5955 167.777 49.9583 166.985 49.9583 166.285 49.9583 165.913 50.5488 165.913 51.2015 165.913 51.7454 166.177 52.4603 166.938 52.4603 167.731 52.4603 167.886 51.7921 167.933 51.5745ZM170.198 50.0049 169.763 50.0049 169.265 51.59 168.675 50.0049 168.1 50.0049 168.923 52.2738C168.939 52.2893 168.986 52.3981 168.986 52.4137 168.986 52.4758 168.908 52.7089 168.83 52.7711 168.722 52.8488 168.597 52.8488 168.286 52.8333L168.286 53.2684C168.457 53.2839 168.566 53.2839 168.597 53.2839 168.83 53.2839 169.094 53.2218 169.265 52.7556Z" fill="#FFFFFF"/><path d="M105.403 58.6142 104.175 58.6142 104.175 59.0805 104.859 59.0805C104.859 59.5622 104.532 59.8419 104.16 59.8419 103.507 59.8419 103.382 59.1892 103.382 58.5987 103.382 58.0859 103.507 57.8683 103.616 57.7284 103.709 57.5886 103.895 57.4487 104.175 57.4487 104.703 57.4487 104.828 57.9149 104.859 58.0548L105.372 57.9615C105.325 57.8062 105.294 57.6041 105.092 57.3866 104.797 57.0291 104.455 56.967 104.16 56.967 103.103 56.967 102.761 57.9305 102.761 58.6453 102.761 59.0183 102.885 60.3237 104.082 60.3237 104.408 60.3237 104.719 60.2304 104.968 59.8419L105.154 60.2771 105.403 60.2771ZM106.087 60.2771 106.63 60.2771 106.63 59.1426C106.63 58.319 107.05 58.2879 107.159 58.2879 107.252 58.2879 107.532 58.3034 107.532 58.8629L107.532 60.2771 108.076 60.2771 108.076 58.8473C108.076 58.5365 108.091 57.8217 107.314 57.8217 106.864 57.8217 106.677 58.2257 106.584 58.4278L106.584 57.8683 106.087 57.8683ZM109.327 60.2771 109.327 57.8683 108.783 57.8683 108.783 60.2771ZM109.591 56.7183 108.658 57.2467 108.767 57.4953 109.762 57.0758ZM112.128 59.0649C112.128 58.4122 111.739 57.8217 111.009 57.8217 110.278 57.8217 109.874 58.3967 109.874 59.0649 109.874 59.6088 110.17 60.3237 110.978 60.3237 111.599 60.3237 112.128 59.873 112.128 59.0649ZM111.537 59.0649C111.537 59.3136 111.506 59.873 110.993 59.873 110.449 59.873 110.449 59.1892 110.449 59.0649 110.449 58.6919 110.558 58.2568 111.009 58.2568 111.413 58.2568 111.537 58.6453 111.537 59.0649ZM112.664 60.2771 113.239 60.2771 113.239 59.096C113.239 58.5055 113.519 58.3034 113.783 58.3034 114.125 58.3034 114.171 58.5832 114.171 58.7696L114.171 60.2771 114.746 60.2771 114.746 59.0183C114.746 58.4899 115.01 58.3034 115.29 58.3034 115.648 58.3034 115.694 58.5521 115.694 58.8629L115.694 60.2771 116.269 60.2771 116.269 58.7075C116.269 58.1791 116.021 57.8217 115.492 57.8217 115.073 57.8217 114.824 58.117 114.7 58.3811 114.638 58.2257 114.513 57.8217 114 57.8217 113.472 57.8217 113.301 58.1791 113.192 58.3811L113.192 57.8683 112.664 57.8683ZM116.965 60.2771 117.509 60.2771 117.509 59.1271C117.509 58.8318 117.54 58.6764 117.617 58.5055 117.679 58.3501 117.866 58.2413 118.053 58.2413 118.425 58.2413 118.425 58.5987 118.425 58.8007L118.425 60.2771 118.969 60.2771 118.969 58.723C118.969 58.0548 118.736 57.7595 118.223 57.7595 117.726 57.7595 117.571 58.148 117.509 58.2879L117.509 57.0136 116.965 57.0136ZM121.654 58.7075C121.654 58.3967 121.654 58.2102 121.405 57.9926 121.25 57.8528 120.939 57.8217 120.675 57.8217 120.178 57.8217 119.68 57.9615 119.587 58.5055L120.053 58.5676C120.069 58.4588 120.131 58.1947 120.613 58.1947 120.861 58.1947 121.126 58.2724 121.126 58.5676L121.126 58.7541C120.613 58.7386 119.509 58.7696 119.509 59.5777 119.509 59.9818 119.789 60.3237 120.302 60.3237 120.893 60.3237 121.048 59.9662 121.126 59.7798 121.141 59.9818 121.157 60.075 121.219 60.2771L121.732 60.2771C121.701 60.1993 121.654 60.0129 121.654 59.7798ZM121.126 59.2669C121.126 59.4534 121.032 59.9196 120.488 59.9196 120.1 59.9196 120.069 59.6399 120.069 59.5467 120.069 59.2514 120.364 59.1582 120.457 59.1271 120.566 59.096 120.784 59.0494 121.126 59.0494ZM122.897 60.2771 122.897 57.8528 122.353 57.8528 122.353 60.2771ZM122.897 57.573 122.897 57.0136 122.353 57.0136 122.353 57.573ZM123.6 60.2771 124.144 60.2771 124.144 59.298C124.144 58.9251 124.237 58.6919 124.331 58.5832 124.502 58.3811 124.704 58.3811 124.828 58.3811L124.828 57.7906C124.315 57.7751 124.144 58.2724 124.098 58.4433L124.098 57.8683 123.6 57.8683ZM126.806 59.5156C126.743 59.6399 126.65 59.9041 126.262 59.9041 126.06 59.9041 125.904 59.8264 125.811 59.6865 125.671 59.4845 125.671 59.298 125.687 59.1426L127.334 59.1426C127.349 58.4433 127.039 57.8217 126.246 57.8217 125.531 57.8217 125.112 58.3656 125.112 59.0805 125.112 59.6865 125.422 60.3237 126.231 60.3237 126.697 60.3237 127.116 60.1061 127.287 59.5777ZM125.687 58.7852C125.702 58.6609 125.702 58.5521 125.795 58.4278 125.889 58.2724 126.044 58.1947 126.231 58.1947 126.417 58.1947 126.557 58.2724 126.65 58.4122 126.759 58.5521 126.759 58.6609 126.759 58.7852ZM129.867 58.7075C129.867 58.3967 129.867 58.2102 129.618 57.9926 129.463 57.8528 129.152 57.8217 128.888 57.8217 128.391 57.8217 127.893 57.9615 127.8 58.5055L128.266 58.5676C128.282 58.4588 128.344 58.1947 128.826 58.1947 129.074 58.1947 129.339 58.2724 129.339 58.5676L129.339 58.7541C128.826 58.7386 127.722 58.7696 127.722 59.5777 127.722 59.9818 128.002 60.3237 128.515 60.3237 129.105 60.3237 129.261 59.9662 129.339 59.7798 129.354 59.9818 129.37 60.075 129.432 60.2771L129.945 60.2771C129.914 60.1993 129.867 60.0129 129.867 59.7798ZM129.339 59.2669C129.339 59.4534 129.245 59.9196 128.702 59.9196 128.313 59.9196 128.282 59.6399 128.282 59.5467 128.282 59.2514 128.577 59.1582 128.67 59.1271 128.779 59.096 128.997 59.0494 129.339 59.0494ZM131.965 59.3913C131.887 59.671 131.747 59.8575 131.483 59.8575 130.986 59.8575 130.986 59.1892 130.986 59.096 130.986 58.9872 131.001 58.8007 131.064 58.6298 131.095 58.5055 131.203 58.2568 131.514 58.2568 131.747 58.2568 131.918 58.3967 131.965 58.7075L132.431 58.6453C132.4 58.4588 132.276 57.8217 131.483 57.8217 130.784 57.8217 130.411 58.4122 130.411 59.0649 130.411 59.6088 130.675 60.3237 131.437 60.3237 132.229 60.3237 132.384 59.6554 132.431 59.4379ZM132.893 60.2771 133.437 60.2771 133.437 59.1271C133.437 58.8318 133.468 58.6764 133.546 58.5055 133.608 58.3501 133.795 58.2413 133.981 58.2413 134.354 58.2413 134.354 58.5987 134.354 58.8007L134.354 60.2771 134.898 60.2771 134.898 58.723C134.898 58.0548 134.665 57.7595 134.152 57.7595 133.655 57.7595 133.499 58.148 133.437 58.2879L133.437 57.0136 132.893 57.0136ZM136.712 59.8575C136.65 59.8575 136.619 59.8575 136.573 59.8575 136.293 59.8575 136.184 59.7953 136.184 59.469L136.184 58.2879 136.666 58.2879 136.666 57.8683 136.184 57.8683 136.184 57.2001 135.733 57.2312 135.687 57.8683 135.36 57.8683 135.36 58.2879 135.656 58.2879 135.656 59.5311C135.656 59.8108 135.671 59.9662 135.827 60.1372 135.935 60.2615 136.153 60.3237 136.339 60.3237 136.433 60.3237 136.588 60.3081 136.712 60.2771ZM139.848 60.2771 139.848 57.5109 140.718 57.5109 140.718 57.0136 138.356 57.0136 138.356 57.5109 139.226 57.5109 139.226 60.2771ZM141.095 60.2771 141.639 60.2771 141.639 59.1271C141.639 58.8318 141.67 58.6764 141.747 58.5055 141.81 58.3501 141.996 58.2413 142.183 58.2413 142.556 58.2413 142.556 58.5987 142.556 58.8007L142.556 60.2771 143.1 60.2771 143.1 58.723C143.1 58.0548 142.866 57.7595 142.354 57.7595 141.856 57.7595 141.701 58.148 141.639 58.2879L141.639 57.0136 141.095 57.0136ZM145.78 57.8683 145.236 57.8683 145.236 59.0183C145.236 59.2514 145.221 59.3757 145.159 59.5156 145.081 59.7331 144.863 59.8575 144.692 59.8575 144.428 59.8575 144.35 59.6554 144.35 59.3913L144.35 57.8683 143.791 57.8683 143.791 59.5467C143.791 59.7798 143.822 59.873 143.915 60.0284 144.055 60.246 144.288 60.3237 144.506 60.3237 144.77 60.3237 144.925 60.2149 145.019 60.1527 145.174 60.0129 145.221 59.8885 145.267 59.7642L145.267 60.2771 145.78 60.2771ZM148.465 58.7075C148.465 58.3967 148.465 58.2102 148.216 57.9926 148.061 57.8528 147.75 57.8217 147.486 57.8217 146.988 57.8217 146.491 57.9615 146.398 58.5055L146.864 58.5676C146.88 58.4588 146.942 58.1947 147.424 58.1947 147.672 58.1947 147.936 58.2724 147.936 58.5676L147.936 58.7541C147.424 58.7386 146.32 58.7696 146.32 59.5777 146.32 59.9818 146.6 60.3237 147.113 60.3237 147.703 60.3237 147.859 59.9662 147.936 59.7798 147.952 59.9818 147.968 60.075 148.03 60.2771L148.543 60.2771C148.511 60.1993 148.465 60.0129 148.465 59.7798ZM147.936 59.2669C147.936 59.4534 147.843 59.9196 147.299 59.9196 146.911 59.9196 146.88 59.6399 146.88 59.5467 146.88 59.2514 147.175 59.1582 147.268 59.1271 147.377 59.096 147.594 59.0494 147.936 59.0494ZM149.708 60.2771 149.708 57.8528 149.164 57.8528 149.164 60.2771ZM149.708 57.573 149.708 57.0136 149.164 57.0136 149.164 57.573ZM150.116 59.7176C150.209 60.075 150.567 60.3237 151.142 60.3237 151.468 60.3237 152.198 60.2149 152.198 59.5311 152.198 59.1582 151.981 58.9251 151.592 58.8473L151.064 58.7386C150.877 58.692 150.722 58.6298 150.722 58.4744 150.722 58.319 150.846 58.1947 151.157 58.1947 151.499 58.1947 151.561 58.3967 151.592 58.4744L152.074 58.3656C151.919 57.8683 151.421 57.8217 151.142 57.8217 150.349 57.8217 150.209 58.319 150.209 58.5832 150.209 59.1426 150.722 59.2514 150.94 59.298L151.39 59.3757C151.483 59.4068 151.654 59.469 151.654 59.6244 151.654 59.9041 151.266 59.9196 151.142 59.9196 150.753 59.9196 150.675 59.7331 150.629 59.6244ZM154.079 59.3913C154.001 59.671 153.861 59.8575 153.597 59.8575 153.1 59.8575 153.1 59.1892 153.1 59.096 153.1 58.9872 153.115 58.8007 153.177 58.6298 153.208 58.5055 153.317 58.2568 153.628 58.2568 153.861 58.2568 154.032 58.3967 154.079 58.7075L154.545 58.6453C154.514 58.4588 154.389 57.8217 153.597 57.8217 152.898 57.8217 152.525 58.4122 152.525 59.0649 152.525 59.6088 152.789 60.3237 153.55 60.3237 154.343 60.3237 154.498 59.6554 154.545 59.4379ZM156.546 59.5156C156.484 59.6399 156.39 59.9041 156.002 59.9041 155.8 59.9041 155.644 59.8264 155.551 59.6865 155.411 59.4845 155.411 59.298 155.427 59.1426L157.074 59.1426C157.09 58.4433 156.779 57.8217 155.986 57.8217 155.271 57.8217 154.852 58.3656 154.852 59.0805 154.852 59.6865 155.163 60.3237 155.971 60.3237 156.437 60.3237 156.857 60.1061 157.027 59.5777ZM155.427 58.7852C155.442 58.6609 155.442 58.5521 155.536 58.4278 155.629 58.2724 155.784 58.1947 155.971 58.1947 156.157 58.1947 156.297 58.2724 156.39 58.4122 156.499 58.5521 156.499 58.6609 156.499 58.7852ZM159.607 58.7075C159.607 58.3967 159.607 58.2102 159.358 57.9926 159.203 57.8528 158.892 57.8217 158.628 57.8217 158.131 57.8217 157.633 57.9615 157.54 58.5055L158.007 58.5676C158.022 58.4588 158.084 58.1947 158.566 58.1947 158.815 58.1947 159.079 58.2724 159.079 58.5676L159.079 58.7541C158.566 58.7386 157.463 58.7696 157.463 59.5777 157.463 59.9818 157.742 60.3237 158.255 60.3237 158.846 60.3237 159.001 59.9662 159.079 59.7798 159.094 59.9818 159.11 60.075 159.172 60.2771L159.685 60.2771C159.654 60.1993 159.607 60.0129 159.607 59.7798ZM159.079 59.2669C159.079 59.4534 158.986 59.9196 158.442 59.9196 158.053 59.9196 158.022 59.6399 158.022 59.5467 158.022 59.2514 158.317 59.1582 158.411 59.1271 158.519 59.096 158.737 59.0494 159.079 59.0494ZM160.306 60.2771 160.85 60.2771 160.85 59.298C160.85 58.9251 160.944 58.6919 161.037 58.5832 161.208 58.3811 161.41 58.3811 161.534 58.3811L161.534 57.7906C161.021 57.7751 160.85 58.2724 160.804 58.4433L160.804 57.8683 160.306 57.8683ZM163.337 59.8575C163.275 59.8575 163.244 59.8575 163.197 59.8575 162.917 59.8575 162.808 59.7953 162.808 59.469L162.808 58.2879 163.29 58.2879 163.29 57.8683 162.808 57.8683 162.808 57.2001 162.358 57.2312 162.311 57.8683 161.985 57.8683 161.985 58.2879 162.28 58.2879 162.28 59.5311C162.28 59.8108 162.296 59.9662 162.451 60.1372 162.56 60.2615 162.777 60.3237 162.964 60.3237 163.057 60.3237 163.213 60.3081 163.337 60.2771ZM167.455 60.2771 167.455 59.7798 165.932 59.7798 165.932 58.8629 167.144 58.8629 167.144 58.3811 165.932 58.3811 165.932 57.4953 167.439 57.4953 167.439 57.0136 165.341 57.0136 165.341 60.2771ZM167.082 56.0035 166.103 56.4697 166.196 56.7183 167.222 56.3764ZM168.527 60.2771 168.527 57.8528 167.983 57.8528 167.983 60.2771ZM168.527 57.573 168.527 57.0136 167.983 57.0136 167.983 57.573ZM169.23 60.2771 169.774 60.2771 169.774 59.298C169.774 58.9251 169.868 58.6919 169.961 58.5832 170.132 58.3811 170.334 58.3811 170.458 58.3811L170.458 57.7906C169.945 57.7751 169.774 58.2724 169.728 58.4433L169.728 57.8683 169.23 57.8683ZM172.436 59.5156C172.373 59.6399 172.28 59.9041 171.892 59.9041 171.69 59.9041 171.534 59.8264 171.441 59.6865 171.301 59.4845 171.301 59.298 171.317 59.1426L172.964 59.1426C172.98 58.4433 172.669 57.8217 171.876 57.8217 171.161 57.8217 170.742 58.3656 170.742 59.0805 170.742 59.6865 171.053 60.3237 171.861 60.3237 172.327 60.3237 172.746 60.1061 172.917 59.5777ZM171.317 58.7852C171.332 58.6609 171.332 58.5521 171.425 58.4278 171.519 58.2724 171.674 58.1947 171.861 58.1947 172.047 58.1947 172.187 58.2724 172.28 58.4122 172.389 58.5521 172.389 58.6609 172.389 58.7852ZM175.497 58.7075C175.497 58.3967 175.497 58.2102 175.248 57.9926 175.093 57.8528 174.782 57.8217 174.518 57.8217 174.021 57.8217 173.523 57.9615 173.43 58.5055L173.896 58.5676C173.912 58.4588 173.974 58.1947 174.456 58.1947 174.704 58.1947 174.969 58.2724 174.969 58.5676L174.969 58.7541C174.456 58.7386 173.353 58.7696 173.353 59.5777 173.353 59.9818 173.632 60.3237 174.145 60.3237 174.736 60.3237 174.891 59.9662 174.969 59.7798 174.984 59.9818 175 60.075 175.062 60.2771L175.575 60.2771C175.544 60.1993 175.497 60.0129 175.497 59.7798ZM174.969 59.2669C174.969 59.4534 174.875 59.9196 174.331 59.9196 173.943 59.9196 173.912 59.6399 173.912 59.5467 173.912 59.2514 174.207 59.1582 174.3 59.1271 174.409 59.096 174.627 59.0494 174.969 59.0494ZM176.196 60.2771 176.74 60.2771 176.74 59.1426C176.74 58.319 177.16 58.2879 177.269 58.2879 177.362 58.2879 177.642 58.3034 177.642 58.8629L177.642 60.2771 178.186 60.2771 178.186 58.8473C178.186 58.5365 178.201 57.8217 177.424 57.8217 176.973 57.8217 176.787 58.2257 176.694 58.4278L176.694 57.8683 176.196 57.8683ZM178.893 60.2771 179.436 60.2771 179.436 59.1426C179.436 58.319 179.856 58.2879 179.965 58.2879 180.058 58.2879 180.338 58.3034 180.338 58.8629L180.338 60.2771 180.882 60.2771 180.882 58.8473C180.882 58.5365 180.897 57.8217 180.12 57.8217 179.67 57.8217 179.483 58.2257 179.39 58.4278L179.39 57.8683 178.893 57.8683Z" fill="#FFFFFF"/><path d="M104.89 62.721 104.346 62.721 104.346 63.871C104.346 64.1041 104.33 64.2284 104.268 64.3683 104.191 64.5859 103.973 64.7102 103.802 64.7102 103.538 64.7102 103.46 64.5082 103.46 64.244L103.46 62.721 102.901 62.721 102.901 64.3994C102.901 64.6325 102.932 64.7257 103.025 64.8811 103.165 65.0987 103.398 65.1764 103.616 65.1764 103.88 65.1764 104.035 65.0676 104.128 65.0054 104.284 64.8656 104.33 64.7413 104.377 64.6169L104.377 65.1298 104.89 65.1298ZM105.585 65.1298 106.16 65.1298 106.16 63.9487C106.16 63.3582 106.44 63.1562 106.704 63.1562 107.046 63.1562 107.093 63.4359 107.093 63.6224L107.093 65.1298 107.668 65.1298 107.668 63.871C107.668 63.3426 107.932 63.1562 108.212 63.1562 108.569 63.1562 108.616 63.4048 108.616 63.7156L108.616 65.1298 109.191 65.1298 109.191 63.5602C109.191 63.0318 108.942 62.6744 108.414 62.6744 107.994 62.6744 107.745 62.9697 107.621 63.2339 107.559 63.0785 107.435 62.6744 106.922 62.6744 106.393 62.6744 106.222 63.0318 106.114 63.2339L106.114 62.721 105.585 62.721ZM111.044 64.3372C111.09 64.4926 111.153 64.6946 111.37 64.8656 111.65 65.0831 111.992 65.1764 112.38 65.1764 113.126 65.1764 113.67 64.8034 113.67 64.1507 113.67 63.4514 113.111 63.296 112.831 63.2183L112.272 63.094C112.116 63.0474 111.821 62.9541 111.821 62.6899 111.821 62.5346 111.93 62.2859 112.38 62.2859 112.847 62.2859 112.94 62.5501 112.986 62.6589L113.546 62.519C113.515 62.4102 113.468 62.2548 113.266 62.0994 113.017 61.8974 112.691 61.8197 112.38 61.8197 111.712 61.8197 111.215 62.1771 111.215 62.7832 111.215 63.2028 111.448 63.5447 111.93 63.6535L112.66 63.8399C112.8 63.8866 113.049 63.9643 113.049 64.2751 113.049 64.4149 112.94 64.7102 112.411 64.7102 112.303 64.7102 112.163 64.6946 111.992 64.6325 111.697 64.5548 111.65 64.3372 111.619 64.2129ZM115.314 64.7102C115.251 64.7102 115.22 64.7102 115.174 64.7102 114.894 64.7102 114.785 64.648 114.785 64.3217L114.785 63.1406 115.267 63.1406 115.267 62.721 114.785 62.721 114.785 62.0528 114.334 62.0839 114.288 62.721 113.962 62.721 113.962 63.1406 114.257 63.1406 114.257 64.3838C114.257 64.6636 114.272 64.819 114.428 64.9899 114.537 65.1142 114.754 65.1764 114.941 65.1764 115.034 65.1764 115.189 65.1609 115.314 65.1298ZM117.808 63.5602C117.808 63.2494 117.808 63.0629 117.559 62.8454 117.404 62.7055 117.093 62.6744 116.829 62.6744 116.331 62.6744 115.834 62.8143 115.741 63.3582L116.207 63.4203C116.223 63.3116 116.285 63.0474 116.767 63.0474 117.015 63.0474 117.279 63.1251 117.279 63.4203L117.279 63.6068C116.767 63.5913 115.663 63.6224 115.663 64.4305 115.663 64.8345 115.943 65.1764 116.456 65.1764 117.046 65.1764 117.202 64.819 117.279 64.6325 117.295 64.8345 117.31 64.9277 117.373 65.1298L117.885 65.1298C117.854 65.0521 117.808 64.8656 117.808 64.6325ZM117.279 64.1197C117.279 64.3061 117.186 64.7723 116.642 64.7723 116.254 64.7723 116.223 64.4926 116.223 64.3994 116.223 64.1041 116.518 64.0109 116.611 63.9798 116.72 63.9487 116.938 63.9021 117.279 63.9021ZM119.051 65.1298 119.051 62.7055 118.507 62.7055 118.507 65.1298ZM119.051 62.4258 119.051 61.8663 118.507 61.8663 118.507 62.4258ZM120.873 64.7102C120.811 64.7102 120.78 64.7102 120.733 64.7102 120.453 64.7102 120.345 64.648 120.345 64.3217L120.345 63.1406 120.826 63.1406 120.826 62.721 120.345 62.721 120.345 62.0528 119.894 62.0839 119.847 62.721 119.521 62.721 119.521 63.1406 119.816 63.1406 119.816 64.3838C119.816 64.6636 119.832 64.819 119.987 64.9899 120.096 65.1142 120.314 65.1764 120.5 65.1764 120.593 65.1764 120.749 65.1609 120.873 65.1298ZM121.922 65.1298 121.922 62.7055 121.378 62.7055 121.378 65.1298ZM121.922 62.4258 121.922 61.8663 121.378 61.8663 121.378 62.4258ZM122.326 64.5703C122.419 64.9277 122.777 65.1764 123.352 65.1764 123.678 65.1764 124.409 65.0676 124.409 64.3838 124.409 64.0109 124.191 63.7778 123.802 63.7001L123.274 63.5913C123.088 63.5447 122.932 63.4825 122.932 63.3271 122.932 63.1717 123.056 63.0474 123.367 63.0474 123.709 63.0474 123.771 63.2494 123.802 63.3271L124.284 63.2183C124.129 62.721 123.631 62.6744 123.352 62.6744 122.559 62.6744 122.419 63.1717 122.419 63.4359 122.419 63.9953 122.932 64.1041 123.15 64.1507L123.6 64.2284C123.694 64.2595 123.865 64.3217 123.865 64.4771 123.865 64.7568 123.476 64.7723 123.352 64.7723 122.963 64.7723 122.885 64.5859 122.839 64.4771ZM126.009 64.7102C125.947 64.7102 125.916 64.7102 125.869 64.7102 125.59 64.7102 125.481 64.648 125.481 64.3217L125.481 63.1406 125.962 63.1406 125.962 62.721 125.481 62.721 125.481 62.0528 125.03 62.0839 124.983 62.721 124.657 62.721 124.657 63.1406 124.952 63.1406 124.952 64.3838C124.952 64.6636 124.968 64.819 125.123 64.9899 125.232 65.1142 125.45 65.1764 125.636 65.1764 125.729 65.1764 125.885 65.1609 126.009 65.1298ZM127.058 65.1298 127.058 62.7055 126.514 62.7055 126.514 65.1298ZM127.058 62.4258 127.058 61.8663 126.514 61.8663 126.514 62.4258ZM129.16 64.244C129.082 64.5237 128.942 64.7102 128.678 64.7102 128.181 64.7102 128.181 64.042 128.181 63.9487 128.181 63.8399 128.196 63.6535 128.259 63.4825 128.29 63.3582 128.398 63.1095 128.709 63.1095 128.942 63.1095 129.113 63.2494 129.16 63.5602L129.626 63.498C129.595 63.3116 129.471 62.6744 128.678 62.6744 127.979 62.6744 127.606 63.2649 127.606 63.9176 127.606 64.4615 127.87 65.1764 128.632 65.1764 129.424 65.1764 129.58 64.5082 129.626 64.2906ZM130.632 65.1298 130.632 62.721 130.088 62.721 130.088 65.1298ZM130.896 61.571 129.964 62.0994 130.073 62.3481 131.067 61.9285ZM134.793 63.5602C134.793 63.2494 134.793 63.0629 134.545 62.8454 134.389 62.7055 134.078 62.6744 133.814 62.6744 133.317 62.6744 132.82 62.8143 132.726 63.3582L133.193 63.4203C133.208 63.3116 133.27 63.0474 133.752 63.0474 134.001 63.0474 134.265 63.1251 134.265 63.4203L134.265 63.6068C133.752 63.5913 132.649 63.6224 132.649 64.4305 132.649 64.8345 132.928 65.1764 133.441 65.1764 134.032 65.1764 134.187 64.819 134.265 64.6325 134.28 64.8345 134.296 64.9277 134.358 65.1298L134.871 65.1298C134.84 65.0521 134.793 64.8656 134.793 64.6325ZM134.265 64.1197C134.265 64.3061 134.172 64.7723 133.628 64.7723 133.239 64.7723 133.208 64.4926 133.208 64.3994 133.208 64.1041 133.503 64.0109 133.597 63.9798 133.705 63.9487 133.923 63.9021 134.265 63.9021ZM137.699 62.2548 137.528 62.2548C137.373 62.2548 137.249 62.2859 137.14 62.3636 137.031 62.4258 136.953 62.5501 136.907 62.721 136.782 62.6899 136.658 62.6744 136.441 62.6744 135.601 62.6744 135.446 63.1406 135.446 63.3893 135.446 63.7311 135.664 63.871 135.788 63.9487 135.664 64.0109 135.399 64.1507 135.399 64.4615 135.399 64.6325 135.492 64.7257 135.632 64.85 135.446 64.9433 135.275 65.0521 135.275 65.3473 135.275 65.8446 135.803 66 136.441 66 137.466 66 137.699 65.5183 137.699 65.2075 137.699 64.8811 137.466 64.5392 136.876 64.5392L136.254 64.5392C135.943 64.5392 135.866 64.3838 135.866 64.3061 135.866 64.1507 135.959 64.1041 136.036 64.073 136.192 64.1041 136.316 64.1352 136.487 64.1352 137.062 64.1352 137.466 63.8244 137.466 63.3893 137.466 63.1251 137.311 62.9697 137.171 62.8609 137.264 62.721 137.342 62.6744 137.528 62.6744L137.699 62.6744ZM136.907 63.3893C136.907 63.5136 136.907 63.6224 136.767 63.7311 136.689 63.7778 136.565 63.8088 136.456 63.8088 136.161 63.8088 136.005 63.6224 136.005 63.4048 136.005 63.2494 136.114 63.0163 136.472 63.0163 136.813 63.0163 136.907 63.2494 136.907 63.3893ZM135.741 65.2075C135.741 65.1298 135.772 65.0831 135.866 64.9899 136.021 65.0521 136.27 65.0521 136.456 65.0521L136.829 65.0521C137 65.0521 137.186 65.1298 137.186 65.3007 137.186 65.5804 136.798 65.6271 136.565 65.6271 136.441 65.6271 136.27 65.6115 136.099 65.5649 135.897 65.5183 135.741 65.3629 135.741 65.2075ZM140.061 62.721 139.517 62.721 139.517 63.871C139.517 64.1041 139.502 64.2284 139.44 64.3683 139.362 64.5859 139.145 64.7102 138.974 64.7102 138.709 64.7102 138.632 64.5082 138.632 64.244L138.632 62.721 138.072 62.721 138.072 64.3994C138.072 64.6325 138.103 64.7257 138.197 64.8811 138.336 65.0987 138.57 65.1764 138.787 65.1764 139.051 65.1764 139.207 65.0676 139.3 65.0054 139.455 64.8656 139.502 64.7413 139.548 64.6169L139.548 65.1298 140.061 65.1298ZM140.462 64.5703C140.555 64.9277 140.912 65.1764 141.487 65.1764 141.814 65.1764 142.544 65.0676 142.544 64.3838 142.544 64.0109 142.326 63.7778 141.938 63.7001L141.41 63.5913C141.223 63.5447 141.068 63.4825 141.068 63.3271 141.068 63.1717 141.192 63.0474 141.503 63.0474 141.845 63.0474 141.907 63.2494 141.938 63.3271L142.42 63.2183C142.264 62.721 141.767 62.6744 141.487 62.6744 140.695 62.6744 140.555 63.1717 140.555 63.4359 140.555 63.9953 141.068 64.1041 141.285 64.1507L141.736 64.2284C141.829 64.2595 142 64.3217 142 64.4771 142 64.7568 141.612 64.7723 141.487 64.7723 141.099 64.7723 141.021 64.5859 140.974 64.4771ZM145.656 65.1298 145.656 62.3636 146.526 62.3636 146.526 61.8663 144.164 61.8663 144.164 62.3636 145.034 62.3636 145.034 65.1298ZM148.597 63.5602C148.597 63.2494 148.597 63.0629 148.348 62.8454 148.193 62.7055 147.882 62.6744 147.618 62.6744 147.121 62.6744 146.623 62.8143 146.53 63.3582L146.996 63.4203C147.012 63.3116 147.074 63.0474 147.556 63.0474 147.804 63.0474 148.068 63.1251 148.068 63.4203L148.068 63.6068C147.556 63.5913 146.452 63.6224 146.452 64.4305 146.452 64.8345 146.732 65.1764 147.245 65.1764 147.835 65.1764 147.991 64.819 148.068 64.6325 148.084 64.8345 148.1 64.9277 148.162 65.1298L148.675 65.1298C148.643 65.0521 148.597 64.8656 148.597 64.6325ZM148.068 64.1197C148.068 64.3061 147.975 64.7723 147.431 64.7723 147.043 64.7723 147.012 64.4926 147.012 64.3994 147.012 64.1041 147.307 64.0109 147.4 63.9798 147.509 63.9487 147.727 63.9021 148.068 63.9021ZM149.84 65.1298 149.84 62.7055 149.296 62.7055 149.296 65.1298ZM149.84 62.4258 149.84 61.8663 149.296 61.8663 149.296 62.4258ZM152.75 62.2548 152.579 62.2548C152.424 62.2548 152.299 62.2859 152.19 62.3636 152.082 62.4258 152.004 62.5501 151.957 62.721 151.833 62.6899 151.709 62.6744 151.491 62.6744 150.652 62.6744 150.497 63.1406 150.497 63.3893 150.497 63.7311 150.714 63.871 150.839 63.9487 150.714 64.0109 150.45 64.1507 150.45 64.4615 150.45 64.6325 150.543 64.7257 150.683 64.85 150.497 64.9433 150.326 65.0521 150.326 65.3473 150.326 65.8446 150.854 66 151.491 66 152.517 66 152.75 65.5183 152.75 65.2075 152.75 64.8811 152.517 64.5392 151.926 64.5392L151.305 64.5392C150.994 64.5392 150.916 64.3838 150.916 64.3061 150.916 64.1507 151.009 64.1041 151.087 64.073 151.243 64.1041 151.367 64.1352 151.538 64.1352 152.113 64.1352 152.517 63.8244 152.517 63.3893 152.517 63.1251 152.362 62.9697 152.222 62.8609 152.315 62.721 152.393 62.6744 152.579 62.6744L152.75 62.6744ZM151.957 63.3893C151.957 63.5136 151.957 63.6224 151.818 63.7311 151.74 63.7778 151.616 63.8088 151.507 63.8088 151.212 63.8088 151.056 63.6224 151.056 63.4048 151.056 63.2494 151.165 63.0163 151.522 63.0163 151.864 63.0163 151.957 63.2494 151.957 63.3893ZM150.792 65.2075C150.792 65.1298 150.823 65.0831 150.916 64.9899 151.072 65.0521 151.32 65.0521 151.507 65.0521L151.88 65.0521C152.051 65.0521 152.237 65.1298 152.237 65.3007 152.237 65.5804 151.849 65.6271 151.616 65.6271 151.491 65.6271 151.32 65.6115 151.149 65.5649 150.947 65.5183 150.792 65.3629 150.792 65.2075ZM153.127 65.1298 153.671 65.1298 153.671 63.9798C153.671 63.6845 153.702 63.5291 153.78 63.3582 153.842 63.2028 154.028 63.094 154.215 63.094 154.588 63.094 154.588 63.4514 154.588 63.6535L154.588 65.1298 155.132 65.1298 155.132 63.5757C155.132 62.9075 154.898 62.6123 154.386 62.6123 153.888 62.6123 153.733 63.0008 153.671 63.1406L153.671 61.8663 153.127 61.8663ZM157.797 65.1298 157.797 61.8663 157.253 61.8663 157.253 63.0474C157.097 62.6899 156.849 62.6123 156.616 62.6123 155.87 62.6123 155.668 63.4203 155.668 63.8866 155.668 64.1507 155.745 65.1764 156.585 65.1764 157.066 65.1764 157.222 64.8034 157.299 64.648L157.299 65.1298ZM157.253 64.1197C157.253 64.5082 156.989 64.7257 156.74 64.7257 156.258 64.7257 156.243 64.0886 156.243 63.9332 156.243 63.7156 156.274 63.0785 156.755 63.0785 156.895 63.0785 157.051 63.1406 157.128 63.2649 157.237 63.4048 157.253 63.498 157.253 63.7001ZM160.042 64.3683C159.98 64.4926 159.887 64.7568 159.498 64.7568 159.296 64.7568 159.141 64.6791 159.048 64.5392 158.908 64.3372 158.908 64.1507 158.923 63.9953L160.571 63.9953C160.586 63.296 160.275 62.6744 159.483 62.6744 158.768 62.6744 158.348 63.2183 158.348 63.9332 158.348 64.5392 158.659 65.1764 159.467 65.1764 159.933 65.1764 160.353 64.9588 160.524 64.4305ZM158.923 63.6379C158.939 63.5136 158.939 63.4048 159.032 63.2805 159.125 63.1251 159.281 63.0474 159.467 63.0474 159.654 63.0474 159.794 63.1251 159.887 63.2649 159.996 63.4048 159.996 63.5136 159.996 63.6379Z" fill="#FFFFFF"/><path d="M0 0 77.5239 0" stroke="#FFFFFF" stroke-width="0.201567" fill="none" transform="matrix(1 0 0 -1 102.574 54.8507)"/><path d="M0 0C1.91887-3.32454 4.31513-5.7208 7.63967-7.63967 10.9271-9.53732 14.5142-10.4391 18.0562-10.4391 22.9946-10.4391 27.8402-8.68331 31.6461-5.42641 31.8649-5.24075 32.0797-5.04847 32.2906-4.85088 33.7758-3.47041 35.0833-1.84859 36.1509 -5.88907e-16L25.3803 6.21809 24.5607 6.69151 18.5057 10.1871 18.0748 10.4351 17.6849 10.211 4.52068 2.60977 3.77276 2.17878Z" fill="#FFFFFF" transform="matrix(1 0 0 -1 58.1176 44.7865)"/><path d="M0 0 0.0198915 0.0119349 0.0198915 12.8327 0.0198915 13.6535 0.840748 13.6535C3.04871 13.6535 5.2076 13.326 7.28295 12.6802L7.28295 16.6399C3.44389 16.6399 0.171067 15.7634-3.15347 13.8432-10.9098 9.36493-14.7038 0.660398-13.3061-7.68211Z" fill="#FFFFFF" transform="matrix(1 0 0 -1 75.7823 33.6403)"/><path d="M0 0C-0.270525 0.100784-0.545028 0.194937-0.820857 0.285112-2.84979 0.942858-5.01399 1.29958-7.26173 1.29958L-7.26173-11.545-0.820857-15.2634 2.94454e-16-15.7382 10.7931-21.9695 11.5039-22.3793 11.0928-23.0901C10.0505-24.8962 8.75625-26.5326 7.26173-27.9569L10.813-30.0083C12.7319-26.6838 13.6085-23.411 13.6085-19.5719 13.6085-10.5995 7.946-2.94925 0 0" fill="#FFFFFF" transform="matrix(1 0 0 -1 83.8851 22.1062)"/><path d="M118.014 20.7661 115.17 20.7661 115.17 34.7212C114.486 33.4158 114.02 32.5611 113.958 32.4057L107.027 20.7661 103.095 20.7661 103.095 40.5177 105.939 40.5177 105.939 25.7234C106.11 26.0653 106.825 27.5882 107.027 27.899L114.766 40.5177 118.014 40.5177ZM125.007 40.5177 125.007 20.7661 121.448 20.7661 121.448 40.5177ZM126.425 35.7468C126.721 36.6637 127.078 37.8759 128.399 38.9481 130.031 40.2535 132.097 40.813 134.475 40.813 138.966 40.813 142.323 38.5286 142.323 34.628 142.323 30.3855 138.889 29.4531 137.195 29.0024L133.853 28.1787C132.843 27.899 131.103 27.3396 131.103 25.8011 131.103 24.791 131.771 23.3457 134.506 23.3457 137.319 23.3457 137.909 24.9153 138.143 25.599L141.515 24.7444C141.344 24.0917 141.049 23.1438 139.852 22.1957 138.314 20.9837 136.402 20.4707 134.444 20.4707 130.481 20.4707 127.451 22.6308 127.451 26.3605 127.451 28.8781 128.85 30.8983 131.725 31.6442L136.122 32.7631C137.024 32.9962 138.562 33.478 138.562 35.3428 138.562 36.2286 137.909 37.938 134.615 37.938 133.962 37.938 133.139 37.8759 132.16 37.5651 130.388 36.9901 130.031 35.7158 129.86 35.0165ZM159.88 40.5177 156.414 31.8152C157.424 31.3645 159.957 30.2767 159.957 26.5781 159.957 24.5579 159.196 23.2215 158.186 22.3046 156.974 21.2478 155.497 20.7661 153.042 20.7661L144.479 20.7661 144.479 40.5177 148.038 40.5177 148.038 32.4057 153.042 32.4057 156.119 40.5177ZM148.038 23.6099 152.762 23.6099C155.28 23.6099 156.259 25.0397 156.259 26.5159 156.259 28.9713 154.223 29.5618 152.467 29.5618L148.038 29.5618ZM172.961 20.7661 168.609 20.7661 162.036 40.5177 165.082 40.5177 166.62 35.809 174.204 35.809 175.804 40.5177 179.581 40.5177ZM167.506 32.9651 170.381 24.1538 173.256 32.9651Z" fill="#FFFFFF"/></g></svg>